<mxfile host="app.diagrams.net" modified="2022-06-05T18:59:54.997Z" agent="5.0 (X11)" etag="I3SVBQp3x1LSWMGUBSDf" version="19.0.0" type="github">
  <diagram id="MfdhKl_LMUNg4a0uSqgR" name="Page-1">
    <mxGraphModel dx="1350" dy="793" grid="1" gridSize="10" guides="1" tooltips="1" connect="1" arrows="1" fold="1" page="1" pageScale="1" pageWidth="850" pageHeight="1100" math="0" shadow="0">
      <root>
        <mxCell id="0" />
        <mxCell id="1" parent="0" />
        <mxCell id="osRg2jaf1iDrFzfn_eNz-1" value="users" style="swimlane;childLayout=stackLayout;horizontal=1;startSize=30;horizontalStack=0;rounded=1;fontSize=14;fontStyle=0;strokeWidth=2;resizeParent=0;resizeLast=1;shadow=0;dashed=0;align=center;" parent="1" vertex="1">
          <mxGeometry x="40" y="50" width="200" height="120" as="geometry" />
        </mxCell>
        <mxCell id="osRg2jaf1iDrFzfn_eNz-2" value="+id Int auto_increment primary key&#xa;+userName vavrchar(255) not null&#xa;+password text not null" style="align=left;strokeColor=none;fillColor=none;spacingLeft=4;fontSize=12;verticalAlign=top;resizable=0;rotatable=0;part=1;" parent="osRg2jaf1iDrFzfn_eNz-1" vertex="1">
          <mxGeometry y="30" width="200" height="90" as="geometry" />
        </mxCell>
        <mxCell id="osRg2jaf1iDrFzfn_eNz-14" style="edgeStyle=orthogonalEdgeStyle;rounded=0;orthogonalLoop=1;jettySize=auto;html=1;exitX=0.5;exitY=0;exitDx=0;exitDy=0;entryX=0.687;entryY=1.015;entryDx=0;entryDy=0;entryPerimeter=0;" parent="1" source="osRg2jaf1iDrFzfn_eNz-3" target="osRg2jaf1iDrFzfn_eNz-6" edge="1">
          <mxGeometry relative="1" as="geometry">
            <Array as="points">
              <mxPoint x="580" y="370" />
              <mxPoint x="525" y="370" />
              <mxPoint x="525" y="330" />
              <mxPoint x="477" y="330" />
            </Array>
          </mxGeometry>
        </mxCell>
        <mxCell id="osRg2jaf1iDrFzfn_eNz-3" value="villages" style="swimlane;childLayout=stackLayout;horizontal=1;startSize=30;horizontalStack=0;rounded=1;fontSize=14;fontStyle=0;strokeWidth=2;resizeParent=0;resizeLast=1;shadow=0;dashed=0;align=center;" parent="1" vertex="1">
          <mxGeometry x="410" y="400" width="200" height="120" as="geometry" />
        </mxCell>
        <mxCell id="osRg2jaf1iDrFzfn_eNz-4" value="+id int auto_increment primary key&#xa;+name varchar(255)&#xa;+" style="align=left;strokeColor=none;fillColor=none;spacingLeft=4;fontSize=12;verticalAlign=top;resizable=0;rotatable=0;part=1;" parent="osRg2jaf1iDrFzfn_eNz-3" vertex="1">
          <mxGeometry y="30" width="200" height="90" as="geometry" />
        </mxCell>
        <mxCell id="osRg2jaf1iDrFzfn_eNz-17" style="edgeStyle=orthogonalEdgeStyle;rounded=0;orthogonalLoop=1;jettySize=auto;html=1;exitX=1;exitY=0.5;exitDx=0;exitDy=0;entryX=0.5;entryY=0;entryDx=0;entryDy=0;" parent="1" source="osRg2jaf1iDrFzfn_eNz-5" target="osRg2jaf1iDrFzfn_eNz-15" edge="1">
          <mxGeometry relative="1" as="geometry" />
        </mxCell>
        <mxCell id="osRg2jaf1iDrFzfn_eNz-18" style="edgeStyle=orthogonalEdgeStyle;rounded=0;orthogonalLoop=1;jettySize=auto;html=1;exitX=0;exitY=0.5;exitDx=0;exitDy=0;entryX=0.462;entryY=-0.008;entryDx=0;entryDy=0;entryPerimeter=0;" parent="1" source="osRg2jaf1iDrFzfn_eNz-5" target="osRg2jaf1iDrFzfn_eNz-9" edge="1">
          <mxGeometry relative="1" as="geometry" />
        </mxCell>
        <mxCell id="osRg2jaf1iDrFzfn_eNz-5" value="orders" style="swimlane;childLayout=stackLayout;horizontal=1;startSize=30;horizontalStack=0;rounded=1;fontSize=14;fontStyle=0;strokeWidth=2;resizeParent=0;resizeLast=1;shadow=0;dashed=0;align=center;" parent="1" vertex="1">
          <mxGeometry x="288" y="110" width="275" height="160" as="geometry" />
        </mxCell>
        <mxCell id="osRg2jaf1iDrFzfn_eNz-6" value="+id int auto_increment primary key&#xa;+name mediumtext&#xa;+pawn int not null default 1&#xa;+village_id int+owner_id&#xa;+weight float not null&#xa;+price int not null&#xa;+pawn_date timestamp defaullt current_timestamp&#xa;+pawn_date_update timestamp&#xa;" style="align=left;strokeColor=none;fillColor=none;spacingLeft=4;fontSize=12;verticalAlign=top;resizable=0;rotatable=0;part=1;" parent="osRg2jaf1iDrFzfn_eNz-5" vertex="1">
          <mxGeometry y="30" width="275" height="130" as="geometry" />
        </mxCell>
        <mxCell id="osRg2jaf1iDrFzfn_eNz-11" style="edgeStyle=orthogonalEdgeStyle;rounded=0;orthogonalLoop=1;jettySize=auto;html=1;exitX=0.5;exitY=0;exitDx=0;exitDy=0;entryX=0.25;entryY=1;entryDx=0;entryDy=0;" parent="1" source="osRg2jaf1iDrFzfn_eNz-7" target="osRg2jaf1iDrFzfn_eNz-10" edge="1">
          <mxGeometry relative="1" as="geometry" />
        </mxCell>
        <mxCell id="osRg2jaf1iDrFzfn_eNz-7" value="categories" style="swimlane;childLayout=stackLayout;horizontal=1;startSize=30;horizontalStack=0;rounded=1;fontSize=14;fontStyle=0;strokeWidth=2;resizeParent=0;resizeLast=1;shadow=0;dashed=0;align=center;" parent="1" vertex="1">
          <mxGeometry x="70" y="500" width="200" height="120" as="geometry" />
        </mxCell>
        <mxCell id="osRg2jaf1iDrFzfn_eNz-8" value="+id int auto_increment primary key&#xa;+name varchar(255)&#xa;+" style="align=left;strokeColor=none;fillColor=none;spacingLeft=4;fontSize=12;verticalAlign=top;resizable=0;rotatable=0;part=1;" parent="osRg2jaf1iDrFzfn_eNz-7" vertex="1">
          <mxGeometry y="30" width="200" height="90" as="geometry" />
        </mxCell>
        <mxCell id="osRg2jaf1iDrFzfn_eNz-9" value="order_category" style="swimlane;childLayout=stackLayout;horizontal=1;startSize=30;horizontalStack=0;rounded=1;fontSize=14;fontStyle=0;strokeWidth=2;resizeParent=0;resizeLast=1;shadow=0;dashed=0;align=center;" parent="1" vertex="1">
          <mxGeometry x="130" y="330" width="195" height="120" as="geometry" />
        </mxCell>
        <mxCell id="osRg2jaf1iDrFzfn_eNz-10" value="+id int auto_increment primary key&#xa;+order_id int&#xa;+gold_id int" style="align=left;strokeColor=none;fillColor=none;spacingLeft=4;fontSize=12;verticalAlign=top;resizable=0;rotatable=0;part=1;" parent="osRg2jaf1iDrFzfn_eNz-9" vertex="1">
          <mxGeometry y="30" width="195" height="90" as="geometry" />
        </mxCell>
        <mxCell id="osRg2jaf1iDrFzfn_eNz-15" value="interests" style="swimlane;childLayout=stackLayout;horizontal=1;startSize=30;horizontalStack=0;rounded=1;fontSize=14;fontStyle=0;strokeWidth=2;resizeParent=0;resizeLast=1;shadow=0;dashed=0;align=center;" parent="1" vertex="1">
          <mxGeometry x="630" y="280" width="220" height="120" as="geometry" />
        </mxCell>
        <mxCell id="osRg2jaf1iDrFzfn_eNz-16" value="+id int auto_increment primary key&#xa;+order_id int&#xa;+detail longtext&#xa;+interest_pay_date timestamp" style="align=left;strokeColor=none;fillColor=none;spacingLeft=4;fontSize=12;verticalAlign=top;resizable=0;rotatable=0;part=1;" parent="osRg2jaf1iDrFzfn_eNz-15" vertex="1">
          <mxGeometry y="30" width="220" height="90" as="geometry" />
        </mxCell>
        <mxCell id="osRg2jaf1iDrFzfn_eNz-19" value="pawn" style="swimlane;childLayout=stackLayout;horizontal=1;startSize=30;horizontalStack=0;rounded=1;fontSize=14;fontStyle=0;strokeWidth=2;resizeParent=0;resizeLast=1;shadow=0;dashed=0;align=center;" parent="1" vertex="1">
          <mxGeometry x="930" y="120" width="200" height="120" as="geometry" />
        </mxCell>
        <mxCell id="osRg2jaf1iDrFzfn_eNz-20" value="+id int auto_increment primary key&#xa;+value varchar(255)&#xa;&#xa;describe by 1 and 0&#xa;" style="align=left;strokeColor=none;fillColor=none;spacingLeft=4;fontSize=12;verticalAlign=top;resizable=0;rotatable=0;part=1;" parent="osRg2jaf1iDrFzfn_eNz-19" vertex="1">
          <mxGeometry y="30" width="200" height="90" as="geometry" />
        </mxCell>
        <mxCell id="osRg2jaf1iDrFzfn_eNz-21" style="edgeStyle=orthogonalEdgeStyle;rounded=0;orthogonalLoop=1;jettySize=auto;html=1;exitX=0;exitY=0.25;exitDx=0;exitDy=0;entryX=1;entryY=0.25;entryDx=0;entryDy=0;" parent="1" source="osRg2jaf1iDrFzfn_eNz-20" target="osRg2jaf1iDrFzfn_eNz-6" edge="1">
          <mxGeometry relative="1" as="geometry" />
        </mxCell>
        <mxCell id="pcK_NEzoXjmTgcR-0PpX-1" value="ownder" style="swimlane;childLayout=stackLayout;horizontal=1;startSize=30;horizontalStack=0;rounded=1;fontSize=14;fontStyle=0;strokeWidth=2;resizeParent=0;resizeLast=1;shadow=0;dashed=0;align=center;" parent="1" vertex="1">
          <mxGeometry x="750" y="10" width="160" height="120" as="geometry" />
        </mxCell>
        <mxCell id="pcK_NEzoXjmTgcR-0PpX-2" value="+id &#xa;+name varchar(255) not null&#xa;+" style="align=left;strokeColor=none;fillColor=none;spacingLeft=4;fontSize=12;verticalAlign=top;resizable=0;rotatable=0;part=1;" parent="pcK_NEzoXjmTgcR-0PpX-1" vertex="1">
          <mxGeometry y="30" width="160" height="90" as="geometry" />
        </mxCell>
        <mxCell id="pcK_NEzoXjmTgcR-0PpX-3" style="edgeStyle=orthogonalEdgeStyle;rounded=0;orthogonalLoop=1;jettySize=auto;html=1;exitX=0;exitY=0.25;exitDx=0;exitDy=0;entryX=0.5;entryY=0;entryDx=0;entryDy=0;" parent="1" source="pcK_NEzoXjmTgcR-0PpX-2" target="osRg2jaf1iDrFzfn_eNz-5" edge="1">
          <mxGeometry relative="1" as="geometry" />
        </mxCell>
      </root>
    </mxGraphModel>
  </diagram>
</mxfile>
